# xmcd
#
# Track frame offsets: 
#        150
#        42928
#        78989
#        86521
#        114360
#        143039
#        179753
#        212353
#        221401
#        240038
#        246000
#        266301
#        278904
#
# Disc length: 4201 seconds
#
# Revision: 0
# Processed by: cddbd v1.5.2PL0 Copyright (c) Steve Scherf et al.
# Submitted via: ExactAudioCopyFreeDBPlugin 1.0
#
DISCID=a610670d
DTITLE=Gov't Mule - The Georgia Bootleg Box - 1996-04-11 [CD1]
DYEAR=1996
DGENRE=Rock
TTITLE0=Blind Man In The Dark
TTITLE1=Mother Earth
TTITLE2=John The Revelator
TTITLE3=Temporary Saint
TTITLE4=Game Face
TTITLE5=No Need To Suffer
TTITLE6=Trane
TTITLE7=Eternity's Breath Jam
TTITLE8=Thelonius Beck
TTITLE9=Trane
TTITLE10=St. Stephen Jam
TTITLE11=Trane
TTITLE12=Don't Step On The Grass, Sam
EXTD=
EXTT0=
EXTT1=
EXTT2=
EXTT3=
EXTT4=
EXTT5=
EXTT6=
EXTT7=
EXTT8=
EXTT9=
EXTT10=
EXTT11=
EXTT12=
PLAYORDER=
